<svg width="188" height="80" viewBox="0 0 188 80" fill="none" xmlns="http://www.w3.org/2000/svg">
<g clip-path="url(#clip0_154_8436)">
<path d="M98.819 47.3232H82.4043V43.6004H98.819V47.3232Z" fill="#17C3B2"/>
<path d="M37.486 37.4385V21.1987C37.486 15.9375 34.9564 12.2444 29.9484 12.2444C25.0909 12.2444 22.4098 15.8861 22.4098 21.2997V37.4385H18.8689V21.2492C18.8689 15.8357 16.2383 12.2444 11.3294 12.2444C6.42236 12.2444 3.79264 15.8357 3.79264 21.2492V37.4385H0.25V9.76513H3.79264V12.9518C5.46168 10.3212 8.29417 9.05679 11.3294 9.05679C15.3263 9.05679 18.6662 10.9286 20.6389 14.3685C22.8144 10.9791 25.901 9.05679 29.9484 9.05679C37.0814 9.05679 41.0269 14.318 41.0269 20.8446V37.4385H37.486Z" fill="#374956"/>
<path d="M69.7622 21.7037C68.751 16.1387 64.3495 12.2437 58.8846 12.2437C53.7261 12.2437 49.1218 15.9864 48.1603 21.7037H69.7622ZM48.1603 24.8912C48.4631 30.4057 53.5233 34.9081 58.8846 34.9081C63.1861 34.9081 67.283 32.4298 68.8006 28.3816H72.5451C70.42 34.3512 64.8551 38.0957 58.936 38.0957C51.0937 38.0957 44.5176 31.7206 44.5176 23.6259C44.5176 15.5818 51.145 9.05613 58.8846 9.05613C67.1829 9.05613 73.4048 16.1892 73.4048 23.8287C73.4048 24.1829 73.3544 24.5371 73.3544 24.8912H48.1603Z" fill="#374956"/>
<path d="M101.635 23.6259C101.635 17.4535 96.8298 12.2427 90.5061 12.2427C84.03 12.2427 79.2239 17.1498 79.2239 23.6772C79.2239 30.0001 83.9786 34.9081 90.5565 34.9081C96.6766 34.9081 101.635 29.8992 101.635 23.6259ZM101.432 37.4377V32.5802H101.332C98.9035 36.1725 94.8562 38.0947 90.5565 38.0947C82.2591 38.0947 75.6821 31.8214 75.6821 23.5249C75.6821 15.2275 82.461 9.05516 90.5565 9.05516C94.8562 9.05516 98.954 11.0793 101.332 14.5192H101.432V-0.000164032H104.975V37.4377H101.432Z" fill="#374956"/>
<path d="M109.881 9.76514H113.422V37.4385H109.881V9.76514ZM109.881 0.00056839H113.422V6.3748H109.881V0.00056839Z" fill="#374956"/>
<path d="M145.649 29.2927C142.815 34.9081 138.312 38.0957 131.887 38.0957C123.64 38.0957 117.014 31.9738 117.014 23.3222C117.014 15.7341 123.692 9.05613 131.887 9.05613C137.959 9.05613 143.372 12.4456 145.649 18.1115H141.753C139.678 14.2669 135.985 12.2437 131.988 12.2437C125.614 12.2437 120.555 17.2517 120.555 23.525C120.555 29.8992 125.563 34.9081 131.988 34.9081C136.187 34.9081 139.78 32.9859 141.753 29.2927H145.649Z" fill="#374956"/>
<path d="M173.98 23.6259C173.98 17.4535 169.123 12.2427 162.849 12.2427C156.474 12.2427 151.567 17.1002 151.567 23.6772C151.567 30.0515 156.374 34.9081 162.901 34.9081C169.072 34.9081 173.98 29.8487 173.98 23.6259ZM173.777 37.4377V32.5802H173.676C171.399 36.0211 167.402 38.0947 162.901 38.0947C154.602 38.0947 148.026 31.8214 148.026 23.5249C148.026 15.2275 154.805 9.05515 162.901 9.05515C167.504 9.05515 171.451 11.1297 173.676 14.621H173.777V9.7644H177.318V37.4377H173.777Z" fill="#374956"/>
<path d="M181.973 0.00056839H185.514V37.4385H181.973V0.00056839Z" fill="#374956"/>
<path d="M100.826 63.608C99.815 58.043 95.4135 54.148 89.9486 54.148C84.7901 54.148 80.1858 57.8907 79.2242 63.608H100.826ZM79.2242 66.7955C79.527 72.31 84.5873 76.8124 89.9486 76.8124C94.25 76.8124 98.3469 74.3341 99.8645 70.2859H103.609C101.484 76.2555 95.9191 80 89.9999 80C82.1576 80 75.5815 73.6249 75.5815 65.5302C75.5815 57.4861 82.209 50.9604 89.9486 50.9604C98.2469 50.9604 104.469 58.0935 104.469 65.733C104.469 66.0872 104.419 66.4414 104.419 66.7955H79.2242Z" fill="#374956"/>
<path d="M132.85 65.5311C132.85 59.3588 127.993 54.148 121.72 54.148C115.344 54.148 110.437 59.0055 110.437 65.5825C110.437 71.9567 115.244 76.8133 121.771 76.8133C127.942 76.8133 132.85 71.754 132.85 65.5311ZM132.648 79.343V74.4855H132.546C130.269 77.9263 126.272 80 121.771 80C113.473 80 106.896 73.7267 106.896 65.4302C106.896 57.1328 113.675 50.9604 121.771 50.9604C126.374 50.9604 130.321 53.035 132.546 56.5263H132.648V51.6697H136.188V79.343H132.648Z" fill="#374956"/>
<path d="M151.974 58.499C151.772 55.8179 150.103 54.148 147.826 54.148C145.498 54.148 143.627 55.9189 143.627 58.2962C143.627 60.3204 145.043 61.7371 148.434 62.85C155.161 65.076 156.477 67.7571 156.477 71.7035C156.477 76.762 153.087 80 147.776 80C143.02 80 139.276 76.6106 139.276 71.3493V71.1465H142.817C142.869 74.8397 144.791 76.8133 147.776 76.8133C150.962 76.8133 152.936 75.0425 152.936 71.8549C152.936 69.1738 151.216 67.7066 148.029 66.5423C143.171 64.7723 140.085 63.4061 140.085 58.6504C140.085 54.1985 143.425 50.9604 147.978 50.9604C152.126 50.9604 155.515 54.0975 155.515 58.499H151.974Z" fill="#374956"/>
<path d="M183.086 63.608C182.075 58.043 177.673 54.148 172.208 54.148C167.05 54.148 162.446 57.8907 161.484 63.608H183.086ZM161.484 66.7955C161.787 72.31 166.847 76.8124 172.208 76.8124C176.51 76.8124 180.607 74.3341 182.124 70.2859H185.869C183.744 76.2555 178.179 80 172.26 80C164.417 80 157.841 73.6249 157.841 65.5302C157.841 57.4861 164.469 50.9604 172.208 50.9604C180.507 50.9604 186.729 58.0935 186.729 65.733C186.729 66.0872 186.678 66.4414 186.678 66.7955H161.484Z" fill="#374956"/>
</g>
<defs>
<clipPath id="clip0_154_8436">
<rect width="187.5" height="80" fill="white" transform="translate(0.25)"/>
</clipPath>
</defs>
</svg>
